<svg xmlns="http://www.w3.org/2000/svg" viewBox="0 0 2055.47 1150.95"><defs><style>.cls-1{fill:#fff;}.cls-2{fill:#d80000;}.cls-3{fill:#000a89;}</style></defs><g id="Text"><path class="cls-1" d="M216.51,826.47,335.78,261.68H627q84.19,0,122.78,42.09T773.41,416q-9.66,44.73-32.89,75a164.49,164.49,0,0,1-55.69,46.92q36,14,51.74,43.41t5.26,79.37q-16.67,80.7-70.59,123.22T523.46,826.47ZM378.76,725.61H507.68q43,0,62.7-15.79t28.5-56.12q7-32.44-7.89-48.68T531.35,588.8H407.7Zm50-234.16H543.63q36.84,0,57-16.66T627,428.31q7-32.44-6.14-48.68t-57-16.22H455.93Z"/><path class="cls-1" d="M779.54,826.47,898.82,261.68H1190q84.19,0,122.78,42.09T1336.44,416q-9.66,44.73-32.89,75t-55.69,46.92q36,14,51.75,43.41t5.26,79.37q-16.68,80.7-70.6,123.22T1086.5,826.47ZM941.79,725.61h128.92q43,0,62.7-15.79t28.51-56.12q7-32.44-7.9-48.68t-59.63-16.22H970.73Zm50-234.16h114.89q36.82,0,57-16.66T1190,428.31q7-32.44-6.14-48.68t-57-16.22H1019Z"/><path class="cls-1" d="M1519.73,835.23q-56.13,0-103-8.33t-78.49-24.11l25.43-120.15q36,16.67,80.25,27.18a372.78,372.78,0,0,0,86.38,10.53q52.62,0,80.69-9.65T1646,668.6q4.38-21.9-5.26-35.08t-36.4-23.24q-26.76-10.06-72.35-24.11-81.57-25.42-108.31-62.71T1411,419.54q17.54-80.68,84.63-123.66t180.23-43a571.56,571.56,0,0,1,93.84,7.45q44.71,7.47,71.91,17.1l-26.31,121a354.28,354.28,0,0,0-71.48-21.93,382,382,0,0,0-72.35-7q-47.35,0-78.49,8.77t-38.15,40.34q-3.51,18.42,4.39,29.38t32,19.73q24.11,8.78,66.21,21.05,65.77,18.42,96.91,44.29t38.15,59.63q7,33.78-1.76,75.86-15.78,74.56-83.75,120.59T1519.73,835.23Z"/></g><g id="ArrNorth"><path class="cls-2" d="M335.79,227H1841.47C1740.37,165.2,1653.77,89.65,1575.4,0,1256.68,111.53,811.87,175.22,335.79,227Z"/><path class="cls-3" d="M1796.47,861h-1582c107,63.21,206.1,140.49,289.91,232.26C835.5,978.3,1299.51,915.11,1796.47,861Z"/></g></svg>